# xmcd CD database file
# Copyright (C) 1997 Ti Kan
#
# Track frame offsets:
#  182
#  975
#  12815
#  31770
#  48387
#
# Disc length: 883 seconds
#
# Revision: 1
# Processed by: cddbd v1.4b41PL1 Copyright (c) Steve Scherf et al.
# Submitted via: CDWizzard Release:4.32
#
DISCID=26037105
DTITLE=Downer - Downer
DYEAR=1900
DGENRE=
TTITLE0=Dust
TTITLE1=Steamroller
TTITLE2=Purify
TTITLE3=Cleanse
TTITLE4=???
EXTD=
EXTT0=
EXTT1=
EXTT2=
EXTT3=
EXTT4=
PLAYORDER=
